# xmcd
#
# Track frame offsets:
#	150
#	23944
#	41622
#	57995
#	77560
#	96368
#	119584
#	140663
#	165049
#	179870
#	197686
#	214339
#	232165
#	250377
#	274499
#	302456
#	319940
#
# Disc length: 4484 seconds
#
# Revision: 1
# Processed by: cddbd v1.5.2PL0 Copyright (c) Steve Scherf et al.
# Submitted via: audiograbber 1.83.01
#
DISCID=01118211
DTITLE=Vari - Note per la ricerca
DYEAR=1900
DGENRE=
TTITLE0=Prova 1
TTITLE1=Prova  2
TTITLE2=Prova  3
TTITLE3=Prova  4
TTITLE4=Prova  5
TTITLE5=Prova  6
TTITLE6=Prova  7
TTITLE7=Prova  8
TTITLE8=Prova  9
TTITLE9=Prova  10
TTITLE10=Prova  11
TTITLE11=Prova  12
TTITLE12=Prova  13
TTITLE13=Prova  14
TTITLE14=Prova  15
TTITLE15=Prova  16
TTITLE16=Prova  17
EXTD=
EXTT0=
EXTT1=
EXTT2=
EXTT3=
EXTT4=
EXTT5=
EXTT6=
EXTT7=
EXTT8=
EXTT9=
EXTT10=
EXTT11=
EXTT12=
EXTT13=
EXTT14=
EXTT15=
EXTT16=
PLAYORDER=
